<?xml version="1.0" encoding="UTF-8"?>
<svg id="Layer_2" data-name="Layer 2" xmlns="http://www.w3.org/2000/svg" viewBox="0 0 843.61 169.62">
  <defs>
    <style>
      .cls-1 {
        fill: #e6e6e6;
      }
    </style>
  </defs>
  <g id="Layer_1-2" data-name="Layer 1">
    <g>
      <path class="cls-1" d="m92.36,65.01c7.83,0,15.66.07,23.48-.04,2.32-.03,3.12.85,3.04,3.07-.1,3.07-.06,6.15-.02,9.23.03,1.75-.61,2.49-2.49,2.52-5.85.09-5.85.16-5.85,5.96,0,14.55-.05,29.1.05,43.65.02,2.46-.66,3.4-3.24,3.29-8.03-.32-5.83,1.32-8.68-6.24-1.48-3.92-1.3-3.86-4.94-1.82-12.53,7.02-25.9,9.53-40.18,7.61-14.55-1.96-26.77-8.23-36.65-19-8.81-9.61-13.85-21.1-15.8-33.86C-1.19,64.47-.09,49.81,6.37,35.98,15.54,16.33,30.86,4.49,52.41,1.03c15.39-2.47,29.81.35,43.09,8.56,1.49.92,1.97.55,2.43-.9.71-2.21,1.6-4.37,2.3-6.59.42-1.32,1.24-1.87,2.57-1.85,1.67.03,3.33.06,5-.01,2.04-.09,2.76.79,2.75,2.82-.07,9.15-.03,18.29-.03,27.44,0,2.91-.07,5.82.02,8.73.05,1.84-.72,2.54-2.52,2.49-2.66-.07-5.33-.12-7.99.02-2.03.1-3.12-.58-3.95-2.53-3.08-7.28-7.21-13.87-13.67-18.72-13.6-10.2-30.77-6.41-38.85,8.58-4.14,7.68-5.99,16.04-6.86,24.58-1.24,12.29-.97,24.57,1.91,36.67,1.65,6.93,4.18,13.48,8.81,19.07,6.25,7.55,17.29,10.83,25.9,7.59.47-.18.92-.39,1.38-.57,2.9-1.16,4.24-2.97,4.13-6.42-.29-9.14-.16-18.29-.06-27.43.02-2.18-.62-2.98-2.84-2.84-2.57.16-5.17-.06-7.74.07-2.02.1-2.9-.6-2.83-2.69.1-3.07.1-6.15,0-9.23-.07-2.18.86-2.9,2.98-2.88,7.99.08,15.99.03,23.98.03Z"/>
      <path class="cls-1" d="m264.95,2.05c10.24,0,20.49-.14,30.73.05,8.14.15,16.07,1.65,23.36,5.47,10.43,5.47,16.15,14.28,17.88,25.79,1.03,6.9.86,13.78-1.09,20.5-3.94,13.65-13.37,21.6-26.8,25.26-5.57,1.52-11.28,2.05-17.04,2.07-5.91.02-11.83.05-17.74-.02-1.73-.02-2.34.59-2.33,2.32.05,10.23.05,20.45,0,30.68,0,1.61.58,2.23,2.2,2.2,3.41-.07,6.83.04,10.24-.03,1.71-.04,2.43.66,2.41,2.34-.04,3.41-.03,6.82,0,10.23,0,1.52-.57,2.24-2.23,2.24-17.57-.04-35.14-.04-52.71,0-1.6,0-2.24-.6-2.21-2.2.06-3.49.05-6.98,0-10.47-.02-1.48.61-2.13,2.08-2.1,1.58.03,3.16-.03,4.75-.01,1.25.02,1.84-.57,1.84-1.81,0-.58.02-1.16.02-1.75,0-30.76,0-61.52,0-92.28q0-3.73-3.69-3.74c-5.71,0-4.93.22-4.98-4.96-.02-2.33.12-4.66-.04-6.98-.15-2.22.72-2.86,2.88-2.84,10.82.09,21.65.04,32.48.04v.03Zm7,39.36c0,7.48.05,14.96-.03,22.43-.02,1.9.52,2.7,2.54,2.62,3.49-.13,6.99-.03,10.48-.04,9.3-.02,14.2-4.08,16.33-13.19,1.4-4.62,1.06-10.58.83-17.85-.13-3.74-1.01-7.39-2.66-10.81-2.44-5.07-6.54-7.6-12.1-7.75-4.24-.11-8.49.03-12.73-.09-2.08-.06-2.73.7-2.71,2.74.09,7.31.04,14.62.04,21.93Z"/>
      <path class="cls-1" d="m479.19,36.98c8.7-.15,16.59,1.3,24,4.85,12.23,5.86,19.56,15.73,22.73,28.7,3.02,12.35,2.49,24.6-2.58,36.37-6.3,14.61-17.91,22.46-33.3,25.14-10.1,1.76-20.1,1.15-29.75-2.37-13.61-4.96-22.5-14.55-26.34-28.48-3.81-13.81-3.3-27.49,3.07-40.54,6.26-12.84,17.07-19.78,30.78-22.61,3.92-.81,7.89-1.24,11.4-1.06Zm-13.94,47.91c.03,5.89-.14,11.8.65,17.66.56,4.11,1.23,8.22,3.19,11.97,2.27,4.37,5.97,6.3,10.79,6.26,4.74-.03,8.32-2.01,10.48-6.33,1.43-2.86,2.22-5.92,2.63-9.05,1.65-12.57,1.39-25.18.47-37.78-.3-4.13-1.16-8.22-2.96-12.03-2.21-4.69-6.92-7.09-12.07-6.53-6.52.7-9.48,4.95-11.04,10.61-2.27,8.26-2.18,16.75-2.14,25.23Z"/>
      <path class="cls-1" d="m173.87,36.96c9.23-.08,17.27,1.39,24.79,5.13,11.79,5.86,18.94,15.47,22.1,28.04,2.86,11.37,2.62,22.77-1.33,33.86-5.8,16.27-17.86,25.14-34.57,28.03-12.03,2.08-23.76.93-34.76-4.6-13.6-6.84-20.58-18.48-22.77-33.12-1.52-10.14-.97-20.22,2.91-29.9,5.94-14.85,17.16-23.23,32.6-26.38,3.93-.8,7.89-1.22,11.03-1.06Zm14.81,48c0-4.81.19-9.64-.06-14.44-.25-4.72-.87-9.43-2.72-13.86-2.15-5.15-5.86-7.73-11.11-7.76-5.41-.03-9.4,2.74-11.5,7.98-1.75,4.37-2.41,8.97-2.76,13.61-.7,9.45-.72,18.91-.02,28.36.35,4.64.97,9.24,2.64,13.63,2.1,5.53,5.85,8.23,11.48,8.29,5.59.05,9.35-2.61,11.5-8.23.47-1.24.81-2.53,1.14-3.81,1.99-7.82,1.31-15.85,1.42-23.78Z"/>
      <path class="cls-1" d="m651.73,88.66c-8.41,0-16.82.07-25.22-.04-2.25-.03-2.97.73-2.72,2.89.46,3.97.99,7.92,2.74,11.57,3.51,7.3,9.77,10.69,17.44,11.69,11.9,1.55,22.78-1.3,32.55-8.26,1.51-1.07,2.06-.71,2.06,1.01,0,2.74-.02,5.49,0,8.23.01,1.28-.58,2.19-1.5,3-13.31,11.82-28.92,15.72-46.34,13.54-7.73-.97-14.93-3.38-21.35-7.8-9.98-6.86-15.69-16.47-17.99-28.25-2.26-11.57-1.51-22.85,3.4-33.64,5.38-11.81,14.61-19.39,26.94-23.18,12.61-3.88,25.16-3.53,37.35,1.63,12.95,5.49,19.4,15.81,21.12,29.47.63,4.99.2,9.94-.06,14.92-.12,2.33-.91,3.33-3.46,3.28-8.32-.15-16.65-.06-24.97-.06Zm-15.17-13.32c3.74,0,7.48-.01,11.23,0,1.22,0,2.01-.29,2.21-1.73.75-5.5.57-10.94-1.09-16.26-1.89-6.06-6.58-9.06-12.52-8.06-4.15.7-6.67,3.51-8.56,6.98-2.9,5.31-3.54,11.17-4.03,17.06-.13,1.55.59,2.04,2.05,2.02,3.57-.05,7.15-.02,10.73-.02Z"/>
      <path class="cls-1" d="m535.2,160.17c4.48,2.27,8.47.18,9.23-4.66.35-2.21.6-4.43.59-6.69-.03-31.01-.02-62.03-.02-93.04q0-3.5-3.58-3.51c-2.08,0-4.17-.12-6.24.03-2.23.16-3.22-.59-3.09-2.94.14-2.57.12-5.16,0-7.73-.1-2.14.72-3.01,2.89-2.96,4,.09,7.99.02,11.99.02,8.74,0,17.49,0,26.23,0,3.46,0,3.57.12,3.57,3.44,0,31.18.06,62.36-.02,93.54-.06,20.39-13.39,31.13-30.41,33.34-7.59.99-15.11,1.04-22.37-1.89-8.46-3.42-11.95-11.97-8.01-19.54,3.78-7.27,11.83-9.56,21.8-2.49,3.86,2.74,2.82,9.75-.6,13.25-.57.59-1.2,1.12-1.96,1.82Z"/>
      <path class="cls-1" d="m760.56,53.75c-4.15-3.19-8.68-4.12-13.32-4.42-11.07-.71-18.65,4.27-22.03,14.82-3.59,11.19-3.9,22.58-.08,33.79,3.1,9.07,9.31,15.1,18.98,16.84,8.66,1.56,16.85-.45,24.72-4.04,2.51-1.15,4.84-2.61,7.08-4.19,1.22-.86,2.02-.95,2.05.8.05,2.99.01,5.98-.01,8.97-.01,1.09-.71,1.81-1.48,2.49-13.42,11.82-29.12,15.7-46.62,13.44-9.2-1.18-17.58-4.31-24.76-10.29-9.54-7.94-14.25-18.4-15.61-30.49-1-8.86-.34-17.61,2.98-25.97,6.14-15.45,17.84-24.27,33.89-27.46,11.76-2.34,23.39-1.37,34.56,3.11,6.56,2.63,12.13,6.62,15.34,13.21,2.31,4.74,2.44,9.62.58,14.52-2.52,6.66-9.46,8.29-16.52,7.02-3.6-.65-10.73-5.93-10.34-13.16.74-4.24,3.23-7.02,7.4-8.21.93-.27,1.88-.46,3.19-.78Z"/>
      <path class="cls-1" d="m400.76,50.28c-3.52,1.65-5.58,3.91-7.33,6.43-5.26,7.59-7.59,16.22-8.51,25.24-1.15,11.19-.36,22.43-.58,33.65-.03,1.6.57,2.23,2.19,2.2,3.83-.07,7.66.07,11.49-.05,2.1-.07,2.82.78,2.75,2.78-.09,2.74-.06,5.49-.02,8.23.02,1.65-.61,2.37-2.36,2.37-17.49-.04-34.98-.04-52.47,0-1.69,0-2.42-.56-2.37-2.31.08-2.91.08-5.82,0-8.73-.05-1.74.69-2.4,2.38-2.31,1.41.07,2.84-.08,4.24.03,1.89.15,2.44-.65,2.42-2.47-.07-8.98-.03-17.96-.03-26.94,0-11.14-.04-22.29.04-33.43.01-2.02-.55-2.76-2.67-2.75-6.37.03-6.37-.06-6.37-6.49,0-1.33.13-2.68-.03-3.99-.29-2.5.9-3.11,3.18-3.1,11.41.07,22.82.02,34.23.04,3.24,0,3.38.17,3.39,3.38.01,4.49,0,8.97,0,14.06,1.18-2.12,1.98-3.82,3.01-5.37,6.01-9.1,14.07-14.47,25.42-13.73,8.18.53,13.71,5.52,15.17,13.66,1.43,8.03-1.94,15.2-8.56,18.18-8.72,3.93-18.68-.47-20.52-9.07-.67-3.15-.08-6.1,1.89-9.52Z"/>
      <path class="cls-1" d="m792.91,84.03c0-9.64-.07-19.29.05-28.93.03-2.34-.78-2.98-3.03-2.96-6.32.06-5.91.89-5.92-5.84,0-1.75.04-3.49,0-5.24-.03-1.64,9.76-2.29,9.76-2.29,4.02-6.55,1.28-2.18,4.02-6.55,3.31-5.27,7.19-10.19,10.76-15.3.94-1.35,2.03-2.01,3.73-1.96,3.24.11,6.5.13,9.74,0,2.11-.08,2.72.76,2.69,2.77-.09,6.07.04,12.14-.07,18.21-.04,2.11.74,2.75,2.76,2.71,4.41-.1,8.83.04,13.24-.06,2.1-.05,3.06.62,2.95,2.85-.14,2.74-.09,5.49-.02,8.23.05,1.81-.68,2.55-2.5,2.52-4.58-.06-9.16.04-13.74-.04-1.84-.03-2.7.43-2.69,2.5.07,17.21.03,34.42.06,51.63,0,1.74.21,3.49.47,5.21.57,3.79,3.23,6.04,7.23,6.3,2.95.2,5.83-.2,8.63-1.04,2.01-.6,2.56.15,2.53,2-.05,2.58-.03,5.15-.01,7.73,0,1.09-.28,2-1.4,2.39-12.29,4.25-24.81,5.94-37.45,1.98-8.66-2.71-11.51-9.85-11.71-18.14-.23-9.56-.05-19.12-.05-28.68-.01,0-.03,0-.04,0Z"/>
      <path class="cls-1" d="m558.87,32.29c-2.58.15-5.01-.22-7.43-.95-6.27-1.9-10.33-6.47-10.95-12.5-.74-7.12,2.11-13.12,7.98-16.11,7.35-3.75,14.78-3.69,21.9.56,5.64,3.37,7.77,8.78,7.17,15.11-.63,6.64-4.56,10.83-10.86,12.89-2.56.83-5.17,1.21-7.81,1.02Z"/>
    </g>
  </g>
</svg>